<svg aria-hidden="true" style="position: absolute; width: 0; height: 0; overflow: hidden;" version="1.1" xmlns="http://www.w3.org/2000/svg" xmlns:xlink="http://www.w3.org/1999/xlink">
<defs>
<symbol id="icon-bin" viewBox="0 0 32 32">
<path fill="#fed136" style="fill: var(--color1, #fed136)" d="M19.374 0.31c-1.107 0.639-1.486 2.054-0.847 3.16l2.448 4.239h-9.564l2.448-4.239c0.639-1.107 0.26-2.521-0.847-3.16s-2.521-0.26-3.16 0.846l-3.47 6.011c-0.101 0.175-0.176 0.357-0.227 0.542h-3.263c-1.597 0-2.892 1.294-2.892 2.891s1.295 2.892 2.892 2.892h26.603c1.597 0 2.892-1.295 2.892-2.892s-1.295-2.891-2.892-2.891h-3.263c-0.051-0.186-0.127-0.368-0.227-0.542l-3.47-6.011c-0.639-1.107-2.054-1.486-3.16-0.846zM30.007 14.65h-27.627l1.001 17.35h25.625l1.001-17.35zM9.253 19.277c0.639 0 1.157 0.517 1.157 1.156v6.94c0 0.639-0.518 1.157-1.157 1.157s-1.157-0.518-1.157-1.157v-6.94c0-0.639 0.518-1.156 1.157-1.156zM16.193 19.277c0.639 0 1.157 0.517 1.157 1.156v6.94c0 0.639-0.518 1.157-1.157 1.157s-1.157-0.518-1.157-1.157v-6.94c0-0.639 0.518-1.156 1.157-1.156zM24.29 20.433c0-0.639-0.518-1.156-1.157-1.156s-1.157 0.517-1.157 1.156v6.94c0 0.639 0.518 1.157 1.157 1.157s1.157-0.518 1.157-1.157v-6.94z"></path>
</symbol>
<symbol id="icon-laptop" viewBox="0 0 38 32">
<path fill="#fed136" style="fill: var(--color1, #fed136)" d="M32 0c2.121 0 3.84 1.719 3.84 3.84v16.64c0 0.449-0.077 0.88-0.219 1.28h0.219v2.56h-3.84v-20.48h-25.6v20.48h-3.84v-2.56h0.219c-0.142-0.4-0.219-0.831-0.219-1.28v-16.64c0-2.121 1.719-3.84 3.84-3.84h25.6zM27.79 9.742l-1.802-1.81c-0.498-0.5-1.305-0.5-1.802 0l-7.614 7.648-2.362-2.373c-0.498-0.5-1.305-0.5-1.802 0l-1.802 1.811c-0.498 0.5-0.498 1.31 0 1.81l4.505 4.525c0.325 0.326 0.781 0.439 1.197 0.34 0.491 0.305 1.144 0.244 1.57-0.185l9.912-9.956c0.497-0.5 0.497-1.311 0-1.81zM2.56 26.88h33.28c1.414 0 2.56 1.147 2.56 2.561s-2.426 2.56-3.84 2.56h-30.72c-1.414 0-3.84-1.146-3.84-2.56s1.146-2.561 2.56-2.561zM15.36 29.44h7.68c0.707 0 1.28 0.286 1.28 0.64s-0.573 0.64-1.28 0.64h-7.68c-0.707 0-1.28-0.287-1.28-0.64s0.573-0.64 1.28-0.64z"></path>
</symbol>
<symbol id="icon-lock" viewBox="0 0 24 32">
<path fill="#fed136" style="fill: var(--color1, #fed136)" d="M12 0c4.418 0 8 3.134 8 7v8h1c1.657 0 3 1.343 3 3v11c0 1.657-1.343 3-3 3h-18c-1.657 0-3-1.344-3-3v-11c0-1.657 1.343-3 3-3h1v-8c0-3.866 3.582-7 8-7zM16 14c0 0.351-0.080 0.688-0.228 1h-7.544c-0.148-0.313-0.228-0.65-0.228-1v-6.999c0-1.657 1.791-3 4-3s4 1.344 4 3v6.999zM16 22c0-2.208-1.791-3.999-4-3.999s-4 1.791-4 3.999c0 1.481 0.804 2.773 2 3.465v1.535c0 1.105 0.895 2 2 2s2-0.895 2-2v-1.535c1.196-0.692 2-1.985 2-3.465z"></path>
</symbol>
</defs>
</svg>
